# MagicaVoxel @ Ephtracy

# group
g human_leg

# material
mtllib human_leg.mtl
usemtl palette

# normals
vn -1 0 0
vn 1 0 0
vn 0 0 1
vn 0 0 -1
vn 0 -1 0
vn 0 1 0

# texcoords
vt 0.0292969 0.5
vt 0.255859 0.5
vt 0.861328 0.5

# verts
v -1.5 0 5
v -1.5 0 2
v -1.5 36 5
v -1.5 36 4
v -1.5 36 3
v -1.5 36 2
v -1.5 37 5
v -1.5 37 4
v -1.5 37 3
v -1.5 37 2
v -1.5 38 5
v -1.5 38 4
v -1.5 38 3
v -1.5 38 2
v -1.5 39 5
v -1.5 39 4
v -1.5 39 3
v -1.5 39 2
v -1.5 42 5
v -1.5 42 2
v -1.5 47 2
v -1.5 47 -5
v -1.5 48 5
v -1.5 48 -5
v 1.5 0 5
v 1.5 0 2
v 1.5 36 5
v 1.5 36 4
v 1.5 36 3
v 1.5 36 2
v 1.5 37 5
v 1.5 37 4
v 1.5 37 3
v 1.5 37 2
v 1.5 38 5
v 1.5 38 4
v 1.5 38 3
v 1.5 38 2
v 1.5 39 5
v 1.5 39 4
v 1.5 39 3
v 1.5 39 2
v 1.5 42 5
v 1.5 42 2
v 1.5 47 2
v 1.5 47 -5
v 1.5 48 5
v 1.5 48 -5
v -1.5 0 5
v -1.5 36 5
v -1.5 37 5
v -1.5 38 5
v -1.5 39 5
v -1.5 42 5
v -1.5 48 5
v -0.5 36 5
v -0.5 37 5
v -0.5 38 5
v -0.5 39 5
v 0.5 36 5
v 0.5 37 5
v 0.5 38 5
v 0.5 39 5
v 1.5 0 5
v 1.5 36 5
v 1.5 37 5
v 1.5 38 5
v 1.5 39 5
v 1.5 42 5
v 1.5 48 5
v -1.5 0 2
v -1.5 36 2
v -1.5 37 2
v -1.5 38 2
v -1.5 39 2
v -1.5 42 2
v -1.5 47 2
v -0.5 36 2
v -0.5 37 2
v -0.5 38 2
v -0.5 39 2
v 0.5 36 2
v 0.5 37 2
v 0.5 38 2
v 0.5 39 2
v 1.5 0 2
v 1.5 36 2
v 1.5 37 2
v 1.5 38 2
v 1.5 39 2
v 1.5 42 2
v 1.5 47 2
v -1.5 47 -5
v -1.5 48 -5
v 1.5 47 -5
v 1.5 48 -5
v -1.5 0 5
v 1.5 0 5
v -1.5 0 2
v 1.5 0 2
v -1.5 47 2
v 1.5 47 2
v -1.5 47 -5
v 1.5 47 -5
v -1.5 48 5
v 1.5 48 5
v -1.5 48 -5
v 1.5 48 -5

# faces
f 3/3/1 2/3/1 1/3/1
f 4/3/1 2/3/1 3/3/1
f 5/3/1 2/3/1 4/3/1
f 6/3/1 2/3/1 5/3/1
f 7/2/1 4/2/1 3/2/1
f 8/3/1 5/3/1 4/3/1
f 8/2/1 4/2/1 7/2/1
f 9/2/1 6/2/1 5/2/1
f 9/3/1 5/3/1 8/3/1
f 10/2/1 6/2/1 9/2/1
f 11/3/1 8/3/1 7/3/1
f 12/2/1 9/2/1 8/2/1
f 12/3/1 8/3/1 11/3/1
f 13/3/1 10/3/1 9/3/1
f 13/2/1 9/2/1 12/2/1
f 14/3/1 10/3/1 13/3/1
f 15/2/1 12/2/1 11/2/1
f 16/3/1 13/3/1 12/3/1
f 16/2/1 12/2/1 15/2/1
f 17/2/1 14/2/1 13/2/1
f 17/3/1 13/3/1 16/3/1
f 18/2/1 14/2/1 17/2/1
f 19/3/1 16/3/1 15/3/1
f 19/3/1 17/3/1 16/3/1
f 19/3/1 18/3/1 17/3/1
f 20/3/1 18/3/1 19/3/1
f 21/1/1 20/1/1 19/1/1
f 23/1/1 21/1/1 19/1/1
f 23/1/1 22/1/1 21/1/1
f 24/1/1 22/1/1 23/1/1
f 25/3/2 26/3/2 27/3/2
f 27/3/2 26/3/2 28/3/2
f 28/3/2 26/3/2 29/3/2
f 29/3/2 26/3/2 30/3/2
f 27/2/2 28/2/2 31/2/2
f 28/3/2 29/3/2 32/3/2
f 31/2/2 28/2/2 32/2/2
f 29/2/2 30/2/2 33/2/2
f 32/3/2 29/3/2 33/3/2
f 33/2/2 30/2/2 34/2/2
f 31/3/2 32/3/2 35/3/2
f 32/2/2 33/2/2 36/2/2
f 35/3/2 32/3/2 36/3/2
f 33/3/2 34/3/2 37/3/2
f 36/2/2 33/2/2 37/2/2
f 37/3/2 34/3/2 38/3/2
f 35/2/2 36/2/2 39/2/2
f 36/3/2 37/3/2 40/3/2
f 39/2/2 36/2/2 40/2/2
f 37/2/2 38/2/2 41/2/2
f 40/3/2 37/3/2 41/3/2
f 41/2/2 38/2/2 42/2/2
f 39/3/2 40/3/2 43/3/2
f 40/3/2 41/3/2 43/3/2
f 41/3/2 42/3/2 43/3/2
f 43/3/2 42/3/2 44/3/2
f 43/1/2 44/1/2 45/1/2
f 43/1/2 45/1/2 47/1/2
f 45/1/2 46/1/2 47/1/2
f 47/1/2 46/1/2 48/1/2
f 56/3/3 50/3/3 49/3/3
f 56/2/3 51/2/3 50/2/3
f 57/3/3 52/3/3 51/3/3
f 57/2/3 51/2/3 56/2/3
f 58/2/3 53/2/3 52/2/3
f 58/3/3 52/3/3 57/3/3
f 59/3/3 54/3/3 53/3/3
f 59/2/3 53/2/3 58/2/3
f 60/3/3 56/3/3 49/3/3
f 60/3/3 57/3/3 56/3/3
f 61/2/3 58/2/3 57/2/3
f 61/3/3 57/3/3 60/3/3
f 62/3/3 59/3/3 58/3/3
f 62/2/3 58/2/3 61/2/3
f 63/3/3 54/3/3 59/3/3
f 63/3/3 59/3/3 62/3/3
f 64/3/3 60/3/3 49/3/3
f 65/2/3 61/2/3 60/2/3
f 65/3/3 60/3/3 64/3/3
f 66/3/3 62/3/3 61/3/3
f 66/2/3 61/2/3 65/2/3
f 67/2/3 63/2/3 62/2/3
f 67/3/3 62/3/3 66/3/3
f 68/3/3 54/3/3 63/3/3
f 68/2/3 63/2/3 67/2/3
f 69/1/3 55/1/3 54/1/3
f 69/3/3 54/3/3 68/3/3
f 70/1/3 55/1/3 69/1/3
f 71/3/4 72/3/4 78/3/4
f 72/2/4 73/2/4 78/2/4
f 73/3/4 74/3/4 79/3/4
f 78/2/4 73/2/4 79/2/4
f 74/2/4 75/2/4 80/2/4
f 79/3/4 74/3/4 80/3/4
f 75/3/4 76/3/4 81/3/4
f 80/2/4 75/2/4 81/2/4
f 71/3/4 78/3/4 82/3/4
f 78/3/4 79/3/4 82/3/4
f 79/2/4 80/2/4 83/2/4
f 82/3/4 79/3/4 83/3/4
f 80/3/4 81/3/4 84/3/4
f 83/2/4 80/2/4 84/2/4
f 81/3/4 76/3/4 85/3/4
f 84/3/4 81/3/4 85/3/4
f 71/3/4 82/3/4 86/3/4
f 82/2/4 83/2/4 87/2/4
f 86/3/4 82/3/4 87/3/4
f 83/3/4 84/3/4 88/3/4
f 87/2/4 83/2/4 88/2/4
f 84/2/4 85/2/4 89/2/4
f 88/3/4 84/3/4 89/3/4
f 85/3/4 76/3/4 90/3/4
f 89/2/4 85/2/4 90/2/4
f 76/1/4 77/1/4 91/1/4
f 90/3/4 76/3/4 91/3/4
f 91/1/4 77/1/4 92/1/4
f 93/1/4 94/1/4 95/1/4
f 95/1/4 94/1/4 96/1/4
f 99/3/5 98/3/5 97/3/5
f 100/3/5 98/3/5 99/3/5
f 103/1/5 102/1/5 101/1/5
f 104/1/5 102/1/5 103/1/5
f 105/1/6 106/1/6 107/1/6
f 107/1/6 106/1/6 108/1/6
