# MagicaVoxel @ Ephtracy

# group
g wall_dirt_up_corner_full

# material
mtllib wall_dirt_up_corner_full.mtl
usemtl palette

# normals
vn -1 0 0
vn 1 0 0
vn 0 0 1
vn 0 0 -1
vn 0 -1 0
vn 0 1 0

# texcoords
vt 0.373047 0.5
vt 0.537109 0.5

# verts
v -20 0 -15
v -20 0 -25
v -20 40 -15
v -20 40 -25
v -7 2 -24
v -7 2 -25
v -7 10 -24
v -7 10 -25
v -7 12 -24
v -7 12 -25
v -7 28 -24
v -7 28 -25
v -7 30 -24
v -7 30 -25
v -7 38 -24
v -7 38 -25
v -4 2 -15
v -4 2 -16
v -4 10 -15
v -4 10 -16
v -4 12 -15
v -4 12 -16
v -4 28 -15
v -4 28 -16
v -4 30 -15
v -4 30 -16
v -4 38 -15
v -4 38 -16
v 10 2 -24
v 10 2 -25
v 10 10 -24
v 10 10 -25
v 10 12 -24
v 10 12 -25
v 10 28 -24
v 10 28 -25
v 10 30 -24
v 10 30 -25
v 10 38 -24
v 10 38 -25
v 13 2 -15
v 13 2 -16
v 13 10 -15
v 13 10 -16
v 13 12 -15
v 13 12 -16
v 13 28 -15
v 13 28 -16
v 13 30 -15
v 13 30 -16
v 13 38 -15
v 13 38 -16
v 15 0 20
v 15 0 -15
v 15 2 19
v 15 2 4
v 15 2 2
v 15 2 -13
v 15 10 19
v 15 10 4
v 15 10 2
v 15 10 -13
v 15 12 19
v 15 12 4
v 15 12 2
v 15 12 -13
v 15 28 19
v 15 28 4
v 15 28 2
v 15 28 -13
v 15 30 19
v 15 30 4
v 15 30 2
v 15 30 -13
v 15 38 19
v 15 38 4
v 15 38 2
v 15 38 -13
v 15 40 20
v 15 40 -15
v 16 2 19
v 16 2 4
v 16 2 2
v 16 2 -13
v 16 10 19
v 16 10 4
v 16 10 2
v 16 10 -13
v 16 12 19
v 16 12 4
v 16 12 2
v 16 12 -13
v 16 28 19
v 16 28 4
v 16 28 2
v 16 28 -13
v 16 30 19
v 16 30 4
v 16 30 2
v 16 30 -13
v 16 38 19
v 16 38 4
v 16 38 2
v 16 38 -13
v 23 2 -24
v 23 2 -25
v 23 10 -24
v 23 10 -25
v 23 12 -24
v 23 12 -25
v 23 28 -24
v 23 28 -25
v 23 30 -24
v 23 30 -25
v 23 38 -24
v 23 38 -25
v -19 2 -15
v -19 2 -16
v -19 10 -15
v -19 10 -16
v -19 12 -15
v -19 12 -16
v -19 28 -15
v -19 28 -16
v -19 30 -15
v -19 30 -16
v -19 38 -15
v -19 38 -16
v -18 2 -24
v -18 2 -25
v -18 10 -24
v -18 10 -25
v -18 12 -24
v -18 12 -25
v -18 28 -24
v -18 28 -25
v -18 30 -24
v -18 30 -25
v -18 38 -24
v -18 38 -25
v -5 2 -24
v -5 2 -25
v -5 10 -24
v -5 10 -25
v -5 12 -24
v -5 12 -25
v -5 28 -24
v -5 28 -25
v -5 30 -24
v -5 30 -25
v -5 38 -24
v -5 38 -25
v -2 2 -15
v -2 2 -16
v -2 10 -15
v -2 10 -16
v -2 12 -15
v -2 12 -16
v -2 28 -15
v -2 28 -16
v -2 30 -15
v -2 30 -16
v -2 38 -15
v -2 38 -16
v 12 2 -24
v 12 2 -25
v 12 10 -24
v 12 10 -25
v 12 12 -24
v 12 12 -25
v 12 28 -24
v 12 28 -25
v 12 30 -24
v 12 30 -25
v 12 38 -24
v 12 38 -25
v 24 2 18
v 24 2 7
v 24 2 5
v 24 2 -10
v 24 2 -12
v 24 2 -23
v 24 10 18
v 24 10 7
v 24 10 5
v 24 10 -10
v 24 10 -12
v 24 10 -23
v 24 12 18
v 24 12 7
v 24 12 5
v 24 12 -10
v 24 12 -12
v 24 12 -23
v 24 28 18
v 24 28 7
v 24 28 5
v 24 28 -10
v 24 28 -12
v 24 28 -23
v 24 30 18
v 24 30 7
v 24 30 5
v 24 30 -10
v 24 30 -12
v 24 30 -23
v 24 38 18
v 24 38 7
v 24 38 5
v 24 38 -10
v 24 38 -12
v 24 38 -23
v 25 0 20
v 25 0 -25
v 25 2 18
v 25 2 7
v 25 2 5
v 25 2 -10
v 25 2 -12
v 25 2 -23
v 25 10 18
v 25 10 7
v 25 10 5
v 25 10 -10
v 25 10 -12
v 25 10 -23
v 25 12 18
v 25 12 7
v 25 12 5
v 25 12 -10
v 25 12 -12
v 25 12 -23
v 25 28 18
v 25 28 7
v 25 28 5
v 25 28 -10
v 25 28 -12
v 25 28 -23
v 25 30 18
v 25 30 7
v 25 30 5
v 25 30 -10
v 25 30 -12
v 25 30 -23
v 25 38 18
v 25 38 7
v 25 38 5
v 25 38 -10
v 25 38 -12
v 25 38 -23
v 25 40 20
v 25 40 -25
v 15 0 20
v 15 40 20
v 25 0 20
v 25 40 20
v 24 2 7
v 24 10 7
v 24 12 7
v 24 28 7
v 24 30 7
v 24 38 7
v 25 2 7
v 25 10 7
v 25 12 7
v 25 28 7
v 25 30 7
v 25 38 7
v 15 2 4
v 15 10 4
v 15 12 4
v 15 28 4
v 15 30 4
v 15 38 4
v 16 2 4
v 16 10 4
v 16 12 4
v 16 28 4
v 16 30 4
v 16 38 4
v 24 2 -10
v 24 10 -10
v 24 12 -10
v 24 28 -10
v 24 30 -10
v 24 38 -10
v 25 2 -10
v 25 10 -10
v 25 12 -10
v 25 28 -10
v 25 30 -10
v 25 38 -10
v 15 2 -13
v 15 10 -13
v 15 12 -13
v 15 28 -13
v 15 30 -13
v 15 38 -13
v 16 2 -13
v 16 10 -13
v 16 12 -13
v 16 28 -13
v 16 30 -13
v 16 38 -13
v -20 0 -15
v -20 40 -15
v -19 2 -15
v -19 10 -15
v -19 12 -15
v -19 28 -15
v -19 30 -15
v -19 38 -15
v -4 2 -15
v -4 10 -15
v -4 12 -15
v -4 28 -15
v -4 30 -15
v -4 38 -15
v -2 2 -15
v -2 10 -15
v -2 12 -15
v -2 28 -15
v -2 30 -15
v -2 38 -15
v 13 2 -15
v 13 10 -15
v 13 12 -15
v 13 28 -15
v 13 30 -15
v 13 38 -15
v 15 0 -15
v 15 40 -15
v -19 2 -16
v -19 10 -16
v -19 12 -16
v -19 28 -16
v -19 30 -16
v -19 38 -16
v -4 2 -16
v -4 10 -16
v -4 12 -16
v -4 28 -16
v -4 30 -16
v -4 38 -16
v -2 2 -16
v -2 10 -16
v -2 12 -16
v -2 28 -16
v -2 30 -16
v -2 38 -16
v 13 2 -16
v 13 10 -16
v 13 12 -16
v 13 28 -16
v 13 30 -16
v 13 38 -16
v 24 2 -23
v 24 10 -23
v 24 12 -23
v 24 28 -23
v 24 30 -23
v 24 38 -23
v 25 2 -23
v 25 10 -23
v 25 12 -23
v 25 28 -23
v 25 30 -23
v 25 38 -23
v 15 2 19
v 15 10 19
v 15 12 19
v 15 28 19
v 15 30 19
v 15 38 19
v 16 2 19
v 16 10 19
v 16 12 19
v 16 28 19
v 16 30 19
v 16 38 19
v 24 2 18
v 24 10 18
v 24 12 18
v 24 28 18
v 24 30 18
v 24 38 18
v 25 2 18
v 25 10 18
v 25 12 18
v 25 28 18
v 25 30 18
v 25 38 18
v 24 2 5
v 24 10 5
v 24 12 5
v 24 28 5
v 24 30 5
v 24 38 5
v 25 2 5
v 25 10 5
v 25 12 5
v 25 28 5
v 25 30 5
v 25 38 5
v 15 2 2
v 15 10 2
v 15 12 2
v 15 28 2
v 15 30 2
v 15 38 2
v 16 2 2
v 16 10 2
v 16 12 2
v 16 28 2
v 16 30 2
v 16 38 2
v 24 2 -12
v 24 10 -12
v 24 12 -12
v 24 28 -12
v 24 30 -12
v 24 38 -12
v 25 2 -12
v 25 10 -12
v 25 12 -12
v 25 28 -12
v 25 30 -12
v 25 38 -12
v -18 2 -24
v -18 10 -24
v -18 12 -24
v -18 28 -24
v -18 30 -24
v -18 38 -24
v -7 2 -24
v -7 10 -24
v -7 12 -24
v -7 28 -24
v -7 30 -24
v -7 38 -24
v -5 2 -24
v -5 10 -24
v -5 12 -24
v -5 28 -24
v -5 30 -24
v -5 38 -24
v 10 2 -24
v 10 10 -24
v 10 12 -24
v 10 28 -24
v 10 30 -24
v 10 38 -24
v 12 2 -24
v 12 10 -24
v 12 12 -24
v 12 28 -24
v 12 30 -24
v 12 38 -24
v 23 2 -24
v 23 10 -24
v 23 12 -24
v 23 28 -24
v 23 30 -24
v 23 38 -24
v -20 0 -25
v -20 40 -25
v -18 2 -25
v -18 10 -25
v -18 12 -25
v -18 28 -25
v -18 30 -25
v -18 38 -25
v -7 2 -25
v -7 10 -25
v -7 12 -25
v -7 28 -25
v -7 30 -25
v -7 38 -25
v -5 2 -25
v -5 10 -25
v -5 12 -25
v -5 28 -25
v -5 30 -25
v -5 38 -25
v 10 2 -25
v 10 10 -25
v 10 12 -25
v 10 28 -25
v 10 30 -25
v 10 38 -25
v 12 2 -25
v 12 10 -25
v 12 12 -25
v 12 28 -25
v 12 30 -25
v 12 38 -25
v 23 2 -25
v 23 10 -25
v 23 12 -25
v 23 28 -25
v 23 30 -25
v 23 38 -25
v 25 0 -25
v 25 40 -25
v 15 0 20
v 25 0 20
v -20 0 -15
v 15 0 -15
v -20 0 -25
v 25 0 -25
v 15 10 19
v 16 10 19
v 24 10 18
v 25 10 18
v 24 10 7
v 25 10 7
v 24 10 5
v 25 10 5
v 15 10 4
v 16 10 4
v 15 10 2
v 16 10 2
v 24 10 -10
v 25 10 -10
v 24 10 -12
v 25 10 -12
v 15 10 -13
v 16 10 -13
v -19 10 -15
v -4 10 -15
v -2 10 -15
v 13 10 -15
v -19 10 -16
v -4 10 -16
v -2 10 -16
v 13 10 -16
v 24 10 -23
v 25 10 -23
v -18 10 -24
v -7 10 -24
v -5 10 -24
v 10 10 -24
v 12 10 -24
v 23 10 -24
v -18 10 -25
v -7 10 -25
v -5 10 -25
v 10 10 -25
v 12 10 -25
v 23 10 -25
v 15 28 19
v 16 28 19
v 24 28 18
v 25 28 18
v 24 28 7
v 25 28 7
v 24 28 5
v 25 28 5
v 15 28 4
v 16 28 4
v 15 28 2
v 16 28 2
v 24 28 -10
v 25 28 -10
v 24 28 -12
v 25 28 -12
v 15 28 -13
v 16 28 -13
v -19 28 -15
v -4 28 -15
v -2 28 -15
v 13 28 -15
v -19 28 -16
v -4 28 -16
v -2 28 -16
v 13 28 -16
v 24 28 -23
v 25 28 -23
v -18 28 -24
v -7 28 -24
v -5 28 -24
v 10 28 -24
v 12 28 -24
v 23 28 -24
v -18 28 -25
v -7 28 -25
v -5 28 -25
v 10 28 -25
v 12 28 -25
v 23 28 -25
v 15 38 19
v 16 38 19
v 24 38 18
v 25 38 18
v 24 38 7
v 25 38 7
v 24 38 5
v 25 38 5
v 15 38 4
v 16 38 4
v 15 38 2
v 16 38 2
v 24 38 -10
v 25 38 -10
v 24 38 -12
v 25 38 -12
v 15 38 -13
v 16 38 -13
v -19 38 -15
v -4 38 -15
v -2 38 -15
v 13 38 -15
v -19 38 -16
v -4 38 -16
v -2 38 -16
v 13 38 -16
v 24 38 -23
v 25 38 -23
v -18 38 -24
v -7 38 -24
v -5 38 -24
v 10 38 -24
v 12 38 -24
v 23 38 -24
v -18 38 -25
v -7 38 -25
v -5 38 -25
v 10 38 -25
v 12 38 -25
v 23 38 -25
v 15 2 19
v 16 2 19
v 24 2 18
v 25 2 18
v 24 2 7
v 25 2 7
v 24 2 5
v 25 2 5
v 15 2 4
v 16 2 4
v 15 2 2
v 16 2 2
v 24 2 -10
v 25 2 -10
v 24 2 -12
v 25 2 -12
v 15 2 -13
v 16 2 -13
v -19 2 -15
v -4 2 -15
v -2 2 -15
v 13 2 -15
v -19 2 -16
v -4 2 -16
v -2 2 -16
v 13 2 -16
v 24 2 -23
v 25 2 -23
v -18 2 -24
v -7 2 -24
v -5 2 -24
v 10 2 -24
v 12 2 -24
v 23 2 -24
v -18 2 -25
v -7 2 -25
v -5 2 -25
v 10 2 -25
v 12 2 -25
v 23 2 -25
v 15 12 19
v 16 12 19
v 24 12 18
v 25 12 18
v 24 12 7
v 25 12 7
v 24 12 5
v 25 12 5
v 15 12 4
v 16 12 4
v 15 12 2
v 16 12 2
v 24 12 -10
v 25 12 -10
v 24 12 -12
v 25 12 -12
v 15 12 -13
v 16 12 -13
v -19 12 -15
v -4 12 -15
v -2 12 -15
v 13 12 -15
v -19 12 -16
v -4 12 -16
v -2 12 -16
v 13 12 -16
v 24 12 -23
v 25 12 -23
v -18 12 -24
v -7 12 -24
v -5 12 -24
v 10 12 -24
v 12 12 -24
v 23 12 -24
v -18 12 -25
v -7 12 -25
v -5 12 -25
v 10 12 -25
v 12 12 -25
v 23 12 -25
v 15 30 19
v 16 30 19
v 24 30 18
v 25 30 18
v 24 30 7
v 25 30 7
v 24 30 5
v 25 30 5
v 15 30 4
v 16 30 4
v 15 30 2
v 16 30 2
v 24 30 -10
v 25 30 -10
v 24 30 -12
v 25 30 -12
v 15 30 -13
v 16 30 -13
v -19 30 -15
v -4 30 -15
v -2 30 -15
v 13 30 -15
v -19 30 -16
v -4 30 -16
v -2 30 -16
v 13 30 -16
v 24 30 -23
v 25 30 -23
v -18 30 -24
v -7 30 -24
v -5 30 -24
v 10 30 -24
v 12 30 -24
v 23 30 -24
v -18 30 -25
v -7 30 -25
v -5 30 -25
v 10 30 -25
v 12 30 -25
v 23 30 -25
v 15 40 20
v 25 40 20
v 16 40 19
v 24 40 19
v -20 40 -15
v 15 40 -15
v -19 40 -16
v 16 40 -16
v -19 40 -24
v 24 40 -24
v -20 40 -25
v 25 40 -25

# faces
f 3/2/1 2/2/1 1/2/1
f 4/2/1 2/2/1 3/2/1
f 7/2/1 6/2/1 5/2/1
f 8/2/1 6/2/1 7/2/1
f 11/2/1 10/2/1 9/2/1
f 12/2/1 10/2/1 11/2/1
f 15/2/1 14/2/1 13/2/1
f 16/2/1 14/2/1 15/2/1
f 19/2/1 18/2/1 17/2/1
f 20/2/1 18/2/1 19/2/1
f 23/2/1 22/2/1 21/2/1
f 24/2/1 22/2/1 23/2/1
f 27/2/1 26/2/1 25/2/1
f 28/2/1 26/2/1 27/2/1
f 31/2/1 30/2/1 29/2/1
f 32/2/1 30/2/1 31/2/1
f 35/2/1 34/2/1 33/2/1
f 36/2/1 34/2/1 35/2/1
f 39/2/1 38/2/1 37/2/1
f 40/2/1 38/2/1 39/2/1
f 43/2/1 42/2/1 41/2/1
f 44/2/1 42/2/1 43/2/1
f 47/2/1 46/2/1 45/2/1
f 48/2/1 46/2/1 47/2/1
f 51/2/1 50/2/1 49/2/1
f 52/2/1 50/2/1 51/2/1
f 55/2/1 54/2/1 53/2/1
f 56/2/1 54/2/1 55/2/1
f 57/2/1 54/2/1 56/2/1
f 58/2/1 54/2/1 57/2/1
f 59/2/1 55/2/1 53/2/1
f 60/2/1 57/2/1 56/2/1
f 61/2/1 57/2/1 60/2/1
f 62/2/1 54/2/1 58/2/1
f 63/2/1 61/2/1 60/2/1
f 63/2/1 62/2/1 61/2/1
f 63/2/1 59/2/1 53/2/1
f 63/2/1 60/2/1 59/2/1
f 64/2/1 62/2/1 63/2/1
f 65/2/1 62/2/1 64/2/1
f 66/2/1 54/2/1 62/2/1
f 66/2/1 62/2/1 65/2/1
f 67/2/1 63/2/1 53/2/1
f 68/2/1 65/2/1 64/2/1
f 69/2/1 65/2/1 68/2/1
f 70/2/1 54/2/1 66/2/1
f 71/2/1 67/2/1 53/2/1
f 71/2/1 70/2/1 69/2/1
f 71/2/1 69/2/1 68/2/1
f 71/2/1 68/2/1 67/2/1
f 72/2/1 70/2/1 71/2/1
f 73/2/1 70/2/1 72/2/1
f 74/2/1 54/2/1 70/2/1
f 74/2/1 70/2/1 73/2/1
f 75/2/1 71/2/1 53/2/1
f 76/2/1 73/2/1 72/2/1
f 77/2/1 73/2/1 76/2/1
f 78/2/1 54/2/1 74/2/1
f 79/2/1 75/2/1 53/2/1
f 79/2/1 78/2/1 77/2/1
f 79/2/1 77/2/1 76/2/1
f 79/2/1 76/2/1 75/2/1
f 80/2/1 54/2/1 78/2/1
f 80/2/1 78/2/1 79/2/1
f 85/1/1 82/1/1 81/1/1
f 86/1/1 82/1/1 85/1/1
f 87/1/1 84/1/1 83/1/1
f 88/1/1 84/1/1 87/1/1
f 93/1/1 90/1/1 89/1/1
f 94/1/1 90/1/1 93/1/1
f 95/1/1 92/1/1 91/1/1
f 96/1/1 92/1/1 95/1/1
f 101/1/1 98/1/1 97/1/1
f 102/1/1 98/1/1 101/1/1
f 103/1/1 100/1/1 99/1/1
f 104/1/1 100/1/1 103/1/1
f 107/2/1 106/2/1 105/2/1
f 108/2/1 106/2/1 107/2/1
f 111/2/1 110/2/1 109/2/1
f 112/2/1 110/2/1 111/2/1
f 115/2/1 114/2/1 113/2/1
f 116/2/1 114/2/1 115/2/1
f 117/2/2 118/2/2 119/2/2
f 119/2/2 118/2/2 120/2/2
f 121/2/2 122/2/2 123/2/2
f 123/2/2 122/2/2 124/2/2
f 125/2/2 126/2/2 127/2/2
f 127/2/2 126/2/2 128/2/2
f 129/2/2 130/2/2 131/2/2
f 131/2/2 130/2/2 132/2/2
f 133/2/2 134/2/2 135/2/2
f 135/2/2 134/2/2 136/2/2
f 137/2/2 138/2/2 139/2/2
f 139/2/2 138/2/2 140/2/2
f 141/2/2 142/2/2 143/2/2
f 143/2/2 142/2/2 144/2/2
f 145/2/2 146/2/2 147/2/2
f 147/2/2 146/2/2 148/2/2
f 149/2/2 150/2/2 151/2/2
f 151/2/2 150/2/2 152/2/2
f 153/2/2 154/2/2 155/2/2
f 155/2/2 154/2/2 156/2/2
f 157/2/2 158/2/2 159/2/2
f 159/2/2 158/2/2 160/2/2
f 161/2/2 162/2/2 163/2/2
f 163/2/2 162/2/2 164/2/2
f 165/2/2 166/2/2 167/2/2
f 167/2/2 166/2/2 168/2/2
f 169/2/2 170/2/2 171/2/2
f 171/2/2 170/2/2 172/2/2
f 173/2/2 174/2/2 175/2/2
f 175/2/2 174/2/2 176/2/2
f 177/1/2 178/1/2 183/1/2
f 183/1/2 178/1/2 184/1/2
f 179/1/2 180/1/2 185/1/2
f 185/1/2 180/1/2 186/1/2
f 181/1/2 182/1/2 187/1/2
f 187/1/2 182/1/2 188/1/2
f 189/1/2 190/1/2 195/1/2
f 195/1/2 190/1/2 196/1/2
f 191/1/2 192/1/2 197/1/2
f 197/1/2 192/1/2 198/1/2
f 193/1/2 194/1/2 199/1/2
f 199/1/2 194/1/2 200/1/2
f 201/1/2 202/1/2 207/1/2
f 207/1/2 202/1/2 208/1/2
f 203/1/2 204/1/2 209/1/2
f 209/1/2 204/1/2 210/1/2
f 205/1/2 206/1/2 211/1/2
f 211/1/2 206/1/2 212/1/2
f 213/2/2 214/2/2 215/2/2
f 215/2/2 214/2/2 216/2/2
f 216/2/2 214/2/2 217/2/2
f 217/2/2 214/2/2 218/2/2
f 218/2/2 214/2/2 219/2/2
f 219/2/2 214/2/2 220/2/2
f 213/2/2 215/2/2 221/2/2
f 216/2/2 217/2/2 222/2/2
f 222/2/2 217/2/2 223/2/2
f 218/2/2 219/2/2 224/2/2
f 224/2/2 219/2/2 225/2/2
f 220/2/2 214/2/2 226/2/2
f 224/2/2 225/2/2 227/2/2
f 225/2/2 226/2/2 227/2/2
f 222/2/2 223/2/2 227/2/2
f 213/2/2 221/2/2 227/2/2
f 223/2/2 224/2/2 227/2/2
f 221/2/2 222/2/2 227/2/2
f 227/2/2 226/2/2 228/2/2
f 228/2/2 226/2/2 229/2/2
f 229/2/2 226/2/2 230/2/2
f 230/2/2 226/2/2 231/2/2
f 226/2/2 214/2/2 232/2/2
f 231/2/2 226/2/2 232/2/2
f 213/2/2 227/2/2 233/2/2
f 228/2/2 229/2/2 234/2/2
f 234/2/2 229/2/2 235/2/2
f 230/2/2 231/2/2 236/2/2
f 236/2/2 231/2/2 237/2/2
f 232/2/2 214/2/2 238/2/2
f 234/2/2 235/2/2 239/2/2
f 237/2/2 238/2/2 239/2/2
f 236/2/2 237/2/2 239/2/2
f 213/2/2 233/2/2 239/2/2
f 235/2/2 236/2/2 239/2/2
f 233/2/2 234/2/2 239/2/2
f 239/2/2 238/2/2 240/2/2
f 240/2/2 238/2/2 241/2/2
f 241/2/2 238/2/2 242/2/2
f 242/2/2 238/2/2 243/2/2
f 238/2/2 214/2/2 244/2/2
f 243/2/2 238/2/2 244/2/2
f 213/2/2 239/2/2 245/2/2
f 240/2/2 241/2/2 246/2/2
f 246/2/2 241/2/2 247/2/2
f 242/2/2 243/2/2 248/2/2
f 248/2/2 243/2/2 249/2/2
f 244/2/2 214/2/2 250/2/2
f 246/2/2 247/2/2 251/2/2
f 249/2/2 250/2/2 251/2/2
f 248/2/2 249/2/2 251/2/2
f 213/2/2 245/2/2 251/2/2
f 247/2/2 248/2/2 251/2/2
f 245/2/2 246/2/2 251/2/2
f 250/2/2 214/2/2 252/2/2
f 251/2/2 250/2/2 252/2/2
f 255/2/3 254/2/3 253/2/3
f 256/2/3 254/2/3 255/2/3
f 263/2/3 258/2/3 257/2/3
f 264/2/3 258/2/3 263/2/3
f 265/2/3 260/2/3 259/2/3
f 266/2/3 260/2/3 265/2/3
f 267/2/3 262/2/3 261/2/3
f 268/2/3 262/2/3 267/2/3
f 275/2/3 270/2/3 269/2/3
f 276/2/3 270/2/3 275/2/3
f 277/2/3 272/2/3 271/2/3
f 278/2/3 272/2/3 277/2/3
f 279/2/3 274/2/3 273/2/3
f 280/2/3 274/2/3 279/2/3
f 287/2/3 282/2/3 281/2/3
f 288/2/3 282/2/3 287/2/3
f 289/2/3 284/2/3 283/2/3
f 290/2/3 284/2/3 289/2/3
f 291/2/3 286/2/3 285/2/3
f 292/2/3 286/2/3 291/2/3
f 299/2/3 294/2/3 293/2/3
f 300/2/3 294/2/3 299/2/3
f 301/2/3 296/2/3 295/2/3
f 302/2/3 296/2/3 301/2/3
f 303/2/3 298/2/3 297/2/3
f 304/2/3 298/2/3 303/2/3
f 307/2/3 306/2/3 305/2/3
f 308/2/3 306/2/3 307/2/3
f 309/2/3 306/2/3 308/2/3
f 310/2/3 306/2/3 309/2/3
f 311/2/3 306/2/3 310/2/3
f 312/2/3 306/2/3 311/2/3
f 313/2/3 307/2/3 305/2/3
f 314/2/3 309/2/3 308/2/3
f 315/2/3 309/2/3 314/2/3
f 316/2/3 311/2/3 310/2/3
f 317/2/3 311/2/3 316/2/3
f 318/2/3 306/2/3 312/2/3
f 319/2/3 317/2/3 316/2/3
f 319/2/3 318/2/3 317/2/3
f 319/2/3 315/2/3 314/2/3
f 319/2/3 313/2/3 305/2/3
f 319/2/3 316/2/3 315/2/3
f 319/2/3 314/2/3 313/2/3
f 320/2/3 318/2/3 319/2/3
f 321/2/3 318/2/3 320/2/3
f 322/2/3 318/2/3 321/2/3
f 323/2/3 318/2/3 322/2/3
f 324/2/3 306/2/3 318/2/3
f 324/2/3 318/2/3 323/2/3
f 325/2/3 319/2/3 305/2/3
f 326/2/3 321/2/3 320/2/3
f 327/2/3 321/2/3 326/2/3
f 328/2/3 323/2/3 322/2/3
f 329/2/3 323/2/3 328/2/3
f 330/2/3 306/2/3 324/2/3
f 331/2/3 327/2/3 326/2/3
f 331/2/3 330/2/3 329/2/3
f 331/2/3 329/2/3 328/2/3
f 331/2/3 325/2/3 305/2/3
f 331/2/3 328/2/3 327/2/3
f 331/2/3 326/2/3 325/2/3
f 332/2/3 306/2/3 330/2/3
f 332/2/3 330/2/3 331/2/3
f 339/1/3 334/1/3 333/1/3
f 340/1/3 334/1/3 339/1/3
f 341/1/3 336/1/3 335/1/3
f 342/1/3 336/1/3 341/1/3
f 343/1/3 338/1/3 337/1/3
f 344/1/3 338/1/3 343/1/3
f 351/1/3 346/1/3 345/1/3
f 352/1/3 346/1/3 351/1/3
f 353/1/3 348/1/3 347/1/3
f 354/1/3 348/1/3 353/1/3
f 355/1/3 350/1/3 349/1/3
f 356/1/3 350/1/3 355/1/3
f 363/2/3 358/2/3 357/2/3
f 364/2/3 358/2/3 363/2/3
f 365/2/3 360/2/3 359/2/3
f 366/2/3 360/2/3 365/2/3
f 367/2/3 362/2/3 361/2/3
f 368/2/3 362/2/3 367/2/3
f 369/2/4 370/2/4 375/2/4
f 375/2/4 370/2/4 376/2/4
f 371/2/4 372/2/4 377/2/4
f 377/2/4 372/2/4 378/2/4
f 373/2/4 374/2/4 379/2/4
f 379/2/4 374/2/4 380/2/4
f 381/2/4 382/2/4 387/2/4
f 387/2/4 382/2/4 388/2/4
f 383/2/4 384/2/4 389/2/4
f 389/2/4 384/2/4 390/2/4
f 385/2/4 386/2/4 391/2/4
f 391/2/4 386/2/4 392/2/4
f 393/2/4 394/2/4 399/2/4
f 399/2/4 394/2/4 400/2/4
f 395/2/4 396/2/4 401/2/4
f 401/2/4 396/2/4 402/2/4
f 397/2/4 398/2/4 403/2/4
f 403/2/4 398/2/4 404/2/4
f 405/2/4 406/2/4 411/2/4
f 411/2/4 406/2/4 412/2/4
f 407/2/4 408/2/4 413/2/4
f 413/2/4 408/2/4 414/2/4
f 409/2/4 410/2/4 415/2/4
f 415/2/4 410/2/4 416/2/4
f 417/2/4 418/2/4 423/2/4
f 423/2/4 418/2/4 424/2/4
f 419/2/4 420/2/4 425/2/4
f 425/2/4 420/2/4 426/2/4
f 421/2/4 422/2/4 427/2/4
f 427/2/4 422/2/4 428/2/4
f 429/1/4 430/1/4 435/1/4
f 435/1/4 430/1/4 436/1/4
f 431/1/4 432/1/4 437/1/4
f 437/1/4 432/1/4 438/1/4
f 433/1/4 434/1/4 439/1/4
f 439/1/4 434/1/4 440/1/4
f 441/1/4 442/1/4 447/1/4
f 447/1/4 442/1/4 448/1/4
f 443/1/4 444/1/4 449/1/4
f 449/1/4 444/1/4 450/1/4
f 445/1/4 446/1/4 451/1/4
f 451/1/4 446/1/4 452/1/4
f 453/1/4 454/1/4 459/1/4
f 459/1/4 454/1/4 460/1/4
f 455/1/4 456/1/4 461/1/4
f 461/1/4 456/1/4 462/1/4
f 457/1/4 458/1/4 463/1/4
f 463/1/4 458/1/4 464/1/4
f 465/2/4 466/2/4 467/2/4
f 467/2/4 466/2/4 468/2/4
f 468/2/4 466/2/4 469/2/4
f 469/2/4 466/2/4 470/2/4
f 470/2/4 466/2/4 471/2/4
f 471/2/4 466/2/4 472/2/4
f 465/2/4 467/2/4 473/2/4
f 468/2/4 469/2/4 474/2/4
f 474/2/4 469/2/4 475/2/4
f 470/2/4 471/2/4 476/2/4
f 476/2/4 471/2/4 477/2/4
f 472/2/4 466/2/4 478/2/4
f 476/2/4 477/2/4 479/2/4
f 477/2/4 478/2/4 479/2/4
f 474/2/4 475/2/4 479/2/4
f 465/2/4 473/2/4 479/2/4
f 475/2/4 476/2/4 479/2/4
f 473/2/4 474/2/4 479/2/4
f 479/2/4 478/2/4 480/2/4
f 480/2/4 478/2/4 481/2/4
f 481/2/4 478/2/4 482/2/4
f 482/2/4 478/2/4 483/2/4
f 478/2/4 466/2/4 484/2/4
f 483/2/4 478/2/4 484/2/4
f 465/2/4 479/2/4 485/2/4
f 480/2/4 481/2/4 486/2/4
f 486/2/4 481/2/4 487/2/4
f 482/2/4 483/2/4 488/2/4
f 488/2/4 483/2/4 489/2/4
f 484/2/4 466/2/4 490/2/4
f 486/2/4 487/2/4 491/2/4
f 489/2/4 490/2/4 491/2/4
f 488/2/4 489/2/4 491/2/4
f 465/2/4 485/2/4 491/2/4
f 487/2/4 488/2/4 491/2/4
f 485/2/4 486/2/4 491/2/4
f 491/2/4 490/2/4 492/2/4
f 492/2/4 490/2/4 493/2/4
f 493/2/4 490/2/4 494/2/4
f 494/2/4 490/2/4 495/2/4
f 490/2/4 466/2/4 496/2/4
f 495/2/4 490/2/4 496/2/4
f 465/2/4 491/2/4 497/2/4
f 492/2/4 493/2/4 498/2/4
f 498/2/4 493/2/4 499/2/4
f 494/2/4 495/2/4 500/2/4
f 500/2/4 495/2/4 501/2/4
f 496/2/4 466/2/4 502/2/4
f 498/2/4 499/2/4 503/2/4
f 501/2/4 502/2/4 503/2/4
f 500/2/4 501/2/4 503/2/4
f 465/2/4 497/2/4 503/2/4
f 499/2/4 500/2/4 503/2/4
f 497/2/4 498/2/4 503/2/4
f 502/2/4 466/2/4 504/2/4
f 503/2/4 502/2/4 504/2/4
f 508/2/5 506/2/5 505/2/5
f 509/2/5 508/2/5 507/2/5
f 510/2/5 506/2/5 508/2/5
f 510/2/5 508/2/5 509/2/5
f 515/2/5 514/2/5 513/2/5
f 516/2/5 514/2/5 515/2/5
f 519/2/5 512/2/5 511/2/5
f 520/2/5 512/2/5 519/2/5
f 523/2/5 518/2/5 517/2/5
f 524/2/5 518/2/5 523/2/5
f 527/2/5 522/2/5 521/2/5
f 528/2/5 522/2/5 527/2/5
f 533/2/5 530/2/5 529/2/5
f 534/2/5 530/2/5 533/2/5
f 535/2/5 532/2/5 531/2/5
f 536/2/5 532/2/5 535/2/5
f 537/2/5 526/2/5 525/2/5
f 538/2/5 526/2/5 537/2/5
f 545/2/5 540/2/5 539/2/5
f 546/2/5 540/2/5 545/2/5
f 547/2/5 542/2/5 541/2/5
f 548/2/5 542/2/5 547/2/5
f 549/2/5 544/2/5 543/2/5
f 550/2/5 544/2/5 549/2/5
f 555/2/5 554/2/5 553/2/5
f 556/2/5 554/2/5 555/2/5
f 559/2/5 552/2/5 551/2/5
f 560/2/5 552/2/5 559/2/5
f 563/2/5 558/2/5 557/2/5
f 564/2/5 558/2/5 563/2/5
f 567/2/5 562/2/5 561/2/5
f 568/2/5 562/2/5 567/2/5
f 573/2/5 570/2/5 569/2/5
f 574/2/5 570/2/5 573/2/5
f 575/2/5 572/2/5 571/2/5
f 576/2/5 572/2/5 575/2/5
f 577/2/5 566/2/5 565/2/5
f 578/2/5 566/2/5 577/2/5
f 585/2/5 580/2/5 579/2/5
f 586/2/5 580/2/5 585/2/5
f 587/2/5 582/2/5 581/2/5
f 588/2/5 582/2/5 587/2/5
f 589/2/5 584/2/5 583/2/5
f 590/2/5 584/2/5 589/2/5
f 595/2/5 594/2/5 593/2/5
f 596/2/5 594/2/5 595/2/5
f 599/2/5 592/2/5 591/2/5
f 600/2/5 592/2/5 599/2/5
f 603/2/5 598/2/5 597/2/5
f 604/2/5 598/2/5 603/2/5
f 607/2/5 602/2/5 601/2/5
f 608/2/5 602/2/5 607/2/5
f 613/2/5 610/2/5 609/2/5
f 614/2/5 610/2/5 613/2/5
f 615/2/5 612/2/5 611/2/5
f 616/2/5 612/2/5 615/2/5
f 617/2/5 606/2/5 605/2/5
f 618/2/5 606/2/5 617/2/5
f 625/2/5 620/2/5 619/2/5
f 626/2/5 620/2/5 625/2/5
f 627/2/5 622/2/5 621/2/5
f 628/2/5 622/2/5 627/2/5
f 629/2/5 624/2/5 623/2/5
f 630/2/5 624/2/5 629/2/5
f 633/2/6 634/2/6 635/2/6
f 635/2/6 634/2/6 636/2/6
f 631/2/6 632/2/6 639/2/6
f 639/2/6 632/2/6 640/2/6
f 637/2/6 638/2/6 643/2/6
f 643/2/6 638/2/6 644/2/6
f 641/2/6 642/2/6 647/2/6
f 647/2/6 642/2/6 648/2/6
f 649/2/6 650/2/6 653/2/6
f 653/2/6 650/2/6 654/2/6
f 651/2/6 652/2/6 655/2/6
f 655/2/6 652/2/6 656/2/6
f 645/2/6 646/2/6 657/2/6
f 657/2/6 646/2/6 658/2/6
f 659/2/6 660/2/6 665/2/6
f 665/2/6 660/2/6 666/2/6
f 661/2/6 662/2/6 667/2/6
f 667/2/6 662/2/6 668/2/6
f 663/2/6 664/2/6 669/2/6
f 669/2/6 664/2/6 670/2/6
f 673/2/6 674/2/6 675/2/6
f 675/2/6 674/2/6 676/2/6
f 671/2/6 672/2/6 679/2/6
f 679/2/6 672/2/6 680/2/6
f 677/2/6 678/2/6 683/2/6
f 683/2/6 678/2/6 684/2/6
f 681/2/6 682/2/6 687/2/6
f 687/2/6 682/2/6 688/2/6
f 689/2/6 690/2/6 693/2/6
f 693/2/6 690/2/6 694/2/6
f 691/2/6 692/2/6 695/2/6
f 695/2/6 692/2/6 696/2/6
f 685/2/6 686/2/6 697/2/6
f 697/2/6 686/2/6 698/2/6
f 699/2/6 700/2/6 705/2/6
f 705/2/6 700/2/6 706/2/6
f 701/2/6 702/2/6 707/2/6
f 707/2/6 702/2/6 708/2/6
f 703/2/6 704/2/6 709/2/6
f 709/2/6 704/2/6 710/2/6
f 713/2/6 714/2/6 715/2/6
f 715/2/6 714/2/6 716/2/6
f 711/2/6 712/2/6 719/2/6
f 719/2/6 712/2/6 720/2/6
f 717/2/6 718/2/6 723/2/6
f 723/2/6 718/2/6 724/2/6
f 721/2/6 722/2/6 727/2/6
f 727/2/6 722/2/6 728/2/6
f 729/2/6 730/2/6 733/2/6
f 733/2/6 730/2/6 734/2/6
f 731/2/6 732/2/6 735/2/6
f 735/2/6 732/2/6 736/2/6
f 725/2/6 726/2/6 737/2/6
f 737/2/6 726/2/6 738/2/6
f 739/2/6 740/2/6 745/2/6
f 745/2/6 740/2/6 746/2/6
f 741/2/6 742/2/6 747/2/6
f 747/2/6 742/2/6 748/2/6
f 743/2/6 744/2/6 749/2/6
f 749/2/6 744/2/6 750/2/6
f 751/2/6 752/2/6 753/2/6
f 753/2/6 752/2/6 754/2/6
f 751/2/6 753/2/6 756/2/6
f 755/2/6 756/2/6 757/2/6
f 753/1/6 754/1/6 758/1/6
f 757/2/6 756/2/6 758/2/6
f 756/2/6 753/2/6 758/2/6
f 755/2/6 757/2/6 759/2/6
f 757/1/6 758/1/6 759/1/6
f 754/2/6 752/2/6 760/2/6
f 759/1/6 758/1/6 760/1/6
f 758/1/6 754/1/6 760/1/6
f 755/2/6 759/2/6 761/2/6
f 759/2/6 760/2/6 761/2/6
f 760/2/6 752/2/6 762/2/6
f 761/2/6 760/2/6 762/2/6
