# MagicaVoxel @ Ephtracy

# group
g field

# material
mtllib field.mtl
usemtl palette

# normals
vn -1 0 0
vn 1 0 0
vn 0 0 1
vn 0 0 -1
vn 0 -1 0
vn 0 1 0

# texcoords
vt 0.537109 0.5
vt 0.990234 0.5

# verts
v -20 0 20
v -20 0 -20
v -20 2 4
v -20 2 3
v -20 3 20
v -20 3 4
v -20 3 3
v -20 3 -20
v -14 2 20
v -14 2 19
v -14 2 17
v -14 2 16
v -14 2 10
v -14 2 9
v -14 2 -2
v -14 2 -3
v -14 2 -9
v -14 2 -10
v -14 2 -20
v -14 3 20
v -14 3 19
v -14 3 17
v -14 3 16
v -14 3 -2
v -14 3 -3
v -14 3 -9
v -14 3 -10
v -14 3 -20
v -6 2 20
v -6 2 2
v -6 2 1
v -6 2 -9
v -6 2 -10
v -6 2 -20
v -6 3 20
v -6 3 -9
v -6 3 -10
v -6 3 -20
v 2 2 20
v 2 2 17
v 2 2 16
v 2 2 3
v 2 2 2
v 2 2 -20
v 2 3 20
v 2 3 3
v 2 3 2
v 2 3 -20
v 10 2 20
v 10 2 18
v 10 2 17
v 10 2 11
v 10 2 10
v 10 2 -16
v 10 2 -17
v 10 2 -20
v 10 3 20
v 10 3 -16
v 10 3 -17
v 10 3 -20
v 18 2 20
v 18 2 17
v 18 2 16
v 18 2 12
v 18 2 11
v 18 2 -5
v 18 2 -6
v 18 2 -15
v 18 2 -16
v 18 2 -20
v 18 3 20
v 18 3 17
v 18 3 16
v 18 3 -5
v 18 3 -6
v 18 3 -15
v 18 3 -16
v 18 3 -20
v -18 2 20
v -18 2 17
v -18 2 16
v -18 2 -6
v -18 2 -7
v -18 2 -15
v -18 2 -16
v -18 2 -20
v -18 3 20
v -18 3 17
v -18 3 16
v -18 3 -6
v -18 3 -7
v -18 3 -15
v -18 3 -16
v -18 3 -20
v -10 2 20
v -10 2 -4
v -10 2 -5
v -10 2 -20
v -10 3 20
v -10 3 -20
v -2 2 20
v -2 2 18
v -2 2 17
v -2 2 -20
v -2 3 20
v -2 3 18
v -2 3 17
v -2 3 -20
v 6 2 20
v 6 2 -10
v 6 2 -11
v 6 2 -19
v 6 2 -20
v 6 3 20
v 6 3 -10
v 6 3 -11
v 6 3 -19
v 6 3 -20
v 14 2 20
v 14 2 11
v 14 2 10
v 14 2 -20
v 14 3 20
v 14 3 11
v 14 3 10
v 14 3 -20
v 20 0 20
v 20 0 -20
v 20 2 3
v 20 2 2
v 20 3 20
v 20 3 3
v 20 3 2
v 20 3 -20
v -20 0 20
v -20 3 20
v -18 2 20
v -18 3 20
v -14 2 20
v -14 3 20
v -13 2 20
v -13 3 20
v -10 2 20
v -10 3 20
v -6 2 20
v -6 3 20
v -2 2 20
v -2 3 20
v 2 2 20
v 2 3 20
v 6 2 20
v 6 3 20
v 10 2 20
v 10 3 20
v 14 2 20
v 14 3 20
v 18 2 20
v 18 3 20
v 20 0 20
v 20 3 20
v -20 0 -20
v -20 3 -20
v -18 2 -20
v -18 3 -20
v -14 2 -20
v -14 3 -20
v -12 2 -20
v -12 3 -20
v -11 2 -20
v -11 3 -20
v -10 2 -20
v -10 3 -20
v -6 2 -20
v -6 3 -20
v -2 2 -20
v -2 3 -20
v 2 2 -20
v 2 3 -20
v 5 2 -20
v 5 3 -20
v 6 2 -20
v 6 3 -20
v 10 2 -20
v 10 3 -20
v 14 2 -20
v 14 3 -20
v 18 2 -20
v 18 3 -20
v 20 0 -20
v 20 3 -20
v -20 0 20
v 20 0 20
v -20 0 -20
v 20 0 -20
v -18 2 20
v -14 2 20
v -10 2 20
v -6 2 20
v -2 2 20
v 2 2 20
v 6 2 20
v 10 2 20
v 14 2 20
v 18 2 20
v -14 2 19
v -8 2 18
v -7 2 18
v -2 2 18
v 9 2 18
v 10 2 18
v -18 2 17
v -14 2 17
v -8 2 17
v -7 2 17
v -2 2 17
v 1 2 17
v 2 2 17
v 9 2 17
v 10 2 17
v 18 2 17
v -18 2 16
v -14 2 16
v 1 2 16
v 2 2 16
v 18 2 16
v -1 2 13
v 0 2 13
v -1 2 12
v 0 2 12
v 17 2 12
v 18 2 12
v 9 2 11
v 10 2 11
v 14 2 11
v 17 2 11
v 18 2 11
v -15 2 10
v -14 2 10
v 9 2 10
v 10 2 10
v 14 2 10
v -15 2 9
v -14 2 9
v -9 2 8
v -8 2 8
v -9 2 7
v -8 2 7
v 16 2 7
v 17 2 7
v 16 2 6
v 17 2 6
v 2 2 3
v -7 2 2
v -6 2 2
v 2 2 2
v -16 2 1
v -15 2 1
v -7 2 1
v -6 2 1
v -16 2 -0
v -15 2 -0
v -14 2 -2
v -14 2 -3
v -1 2 -3
v 0 2 -3
v 8 2 -3
v 9 2 -3
v -10 2 -4
v -9 2 -4
v -1 2 -4
v 0 2 -4
v 8 2 -4
v 9 2 -4
v -10 2 -5
v -9 2 -5
v 18 2 -5
v -18 2 -6
v 18 2 -6
v -18 2 -7
v 15 2 -7
v 16 2 -7
v 15 2 -8
v 16 2 -8
v -14 2 -9
v -6 2 -9
v -14 2 -10
v -6 2 -10
v 6 2 -10
v 6 2 -11
v -18 2 -15
v -16 2 -15
v -15 2 -15
v 18 2 -15
v -18 2 -16
v -16 2 -16
v -15 2 -16
v 10 2 -16
v 18 2 -16
v 10 2 -17
v -8 2 -18
v -7 2 -18
v -8 2 -19
v -7 2 -19
v 6 2 -19
v -18 2 -20
v -14 2 -20
v -10 2 -20
v -6 2 -20
v -2 2 -20
v 2 2 -20
v 6 2 -20
v 10 2 -20
v 14 2 -20
v 18 2 -20
v -20 3 20
v -18 3 20
v -14 3 20
v -13 3 20
v -10 3 20
v -6 3 20
v -2 3 20
v 2 3 20
v 6 3 20
v 10 3 20
v 14 3 20
v 18 3 20
v 20 3 20
v -14 3 19
v -13 3 19
v -3 3 18
v -2 3 18
v 4 3 18
v 5 3 18
v -19 3 17
v -18 3 17
v -14 3 17
v -13 3 17
v -3 3 17
v -2 3 17
v 4 3 17
v 5 3 17
v 18 3 17
v 19 3 17
v -19 3 16
v -18 3 16
v -14 3 16
v -13 3 16
v 18 3 16
v 19 3 16
v 11 3 14
v 12 3 14
v 11 3 13
v 12 3 13
v -12 3 11
v -11 3 11
v -5 3 11
v -4 3 11
v 13 3 11
v 14 3 11
v -12 3 10
v -11 3 10
v -5 3 10
v -4 3 10
v 13 3 10
v 14 3 10
v 3 3 9
v 4 3 9
v 3 3 8
v 4 3 8
v -20 3 4
v -19 3 4
v -5 3 4
v -4 3 4
v -20 3 3
v -19 3 3
v -5 3 3
v -4 3 3
v 2 3 3
v 3 3 3
v 11 3 3
v 12 3 3
v 19 3 3
v 20 3 3
v 2 3 2
v 3 3 2
v 11 3 2
v 12 3 2
v 19 3 2
v 20 3 2
v -14 3 -2
v -13 3 -2
v -14 3 -3
v -13 3 -3
v 18 3 -5
v 19 3 -5
v -19 3 -6
v -18 3 -6
v 11 3 -6
v 12 3 -6
v 18 3 -6
v 19 3 -6
v -19 3 -7
v -18 3 -7
v 11 3 -7
v 12 3 -7
v -14 3 -9
v -13 3 -9
v -6 3 -9
v -5 3 -9
v -14 3 -10
v -13 3 -10
v -6 3 -10
v -5 3 -10
v 5 3 -10
v 6 3 -10
v 5 3 -11
v 6 3 -11
v -4 3 -14
v -3 3 -14
v 12 3 -14
v 13 3 -14
v -19 3 -15
v -18 3 -15
v -4 3 -15
v -3 3 -15
v 12 3 -15
v 13 3 -15
v 18 3 -15
v 19 3 -15
v -19 3 -16
v -18 3 -16
v 4 3 -16
v 5 3 -16
v 10 3 -16
v 11 3 -16
v 18 3 -16
v 19 3 -16
v 4 3 -17
v 5 3 -17
v 10 3 -17
v 11 3 -17
v -12 3 -19
v -11 3 -19
v 5 3 -19
v 6 3 -19
v -20 3 -20
v -18 3 -20
v -14 3 -20
v -12 3 -20
v -11 3 -20
v -10 3 -20
v -6 3 -20
v -2 3 -20
v 2 3 -20
v 5 3 -20
v 6 3 -20
v 10 3 -20
v 14 3 -20
v 18 3 -20
v 20 3 -20

# faces
f 3/1/1 2/1/1 1/1/1
f 4/1/1 2/1/1 3/1/1
f 5/1/1 3/1/1 1/1/1
f 6/2/1 4/2/1 3/2/1
f 6/1/1 3/1/1 5/1/1
f 7/1/1 2/1/1 4/1/1
f 7/2/1 4/2/1 6/2/1
f 8/1/1 2/1/1 7/1/1
f 20/2/1 10/2/1 9/2/1
f 21/1/1 11/1/1 10/1/1
f 21/2/1 10/2/1 20/2/1
f 22/2/1 12/2/1 11/2/1
f 22/1/1 11/1/1 21/1/1
f 23/1/1 13/1/1 12/1/1
f 23/2/1 12/2/1 22/2/1
f 23/1/1 14/1/1 13/1/1
f 23/1/1 15/1/1 14/1/1
f 24/2/1 16/2/1 15/2/1
f 24/1/1 15/1/1 23/1/1
f 25/1/1 17/1/1 16/1/1
f 25/2/1 16/2/1 24/2/1
f 26/2/1 18/2/1 17/2/1
f 26/1/1 17/1/1 25/1/1
f 27/1/1 19/1/1 18/1/1
f 27/2/1 18/2/1 26/2/1
f 28/1/1 19/1/1 27/1/1
f 35/1/1 30/1/1 29/1/1
f 35/1/1 31/1/1 30/1/1
f 35/1/1 32/1/1 31/1/1
f 36/2/1 33/2/1 32/2/1
f 36/1/1 32/1/1 35/1/1
f 37/1/1 34/1/1 33/1/1
f 37/2/1 33/2/1 36/2/1
f 38/1/1 34/1/1 37/1/1
f 45/1/1 40/1/1 39/1/1
f 45/1/1 41/1/1 40/1/1
f 45/1/1 42/1/1 41/1/1
f 46/2/1 43/2/1 42/2/1
f 46/1/1 42/1/1 45/1/1
f 47/1/1 44/1/1 43/1/1
f 47/2/1 43/2/1 46/2/1
f 48/1/1 44/1/1 47/1/1
f 57/1/1 50/1/1 49/1/1
f 57/1/1 51/1/1 50/1/1
f 57/1/1 52/1/1 51/1/1
f 57/1/1 54/1/1 53/1/1
f 57/1/1 53/1/1 52/1/1
f 58/2/1 55/2/1 54/2/1
f 58/1/1 54/1/1 57/1/1
f 59/1/1 56/1/1 55/1/1
f 59/2/1 55/2/1 58/2/1
f 60/1/1 56/1/1 59/1/1
f 71/1/1 62/1/1 61/1/1
f 72/2/1 63/2/1 62/2/1
f 72/1/1 62/1/1 71/1/1
f 73/1/1 64/1/1 63/1/1
f 73/2/1 63/2/1 72/2/1
f 73/1/1 65/1/1 64/1/1
f 73/1/1 66/1/1 65/1/1
f 74/2/1 67/2/1 66/2/1
f 74/1/1 66/1/1 73/1/1
f 75/1/1 68/1/1 67/1/1
f 75/2/1 67/2/1 74/2/1
f 76/2/1 69/2/1 68/2/1
f 76/1/1 68/1/1 75/1/1
f 77/1/1 70/1/1 69/1/1
f 77/2/1 69/2/1 76/2/1
f 78/1/1 70/1/1 77/1/1
f 79/1/2 80/1/2 87/1/2
f 80/2/2 81/2/2 88/2/2
f 87/1/2 80/1/2 88/1/2
f 81/1/2 82/1/2 89/1/2
f 88/2/2 81/2/2 89/2/2
f 82/2/2 83/2/2 90/2/2
f 89/1/2 82/1/2 90/1/2
f 83/1/2 84/1/2 91/1/2
f 90/2/2 83/2/2 91/2/2
f 84/2/2 85/2/2 92/2/2
f 91/1/2 84/1/2 92/1/2
f 85/1/2 86/1/2 93/1/2
f 92/2/2 85/2/2 93/2/2
f 93/1/2 86/1/2 94/1/2
f 95/1/2 96/1/2 99/1/2
f 97/1/2 98/1/2 99/1/2
f 96/1/2 97/1/2 99/1/2
f 99/1/2 98/1/2 100/1/2
f 101/1/2 102/1/2 105/1/2
f 102/2/2 103/2/2 106/2/2
f 105/1/2 102/1/2 106/1/2
f 103/1/2 104/1/2 107/1/2
f 106/2/2 103/2/2 107/2/2
f 107/1/2 104/1/2 108/1/2
f 109/1/2 110/1/2 114/1/2
f 110/2/2 111/2/2 115/2/2
f 114/1/2 110/1/2 115/1/2
f 111/1/2 112/1/2 116/1/2
f 115/2/2 111/2/2 116/2/2
f 112/2/2 113/2/2 117/2/2
f 116/1/2 112/1/2 117/1/2
f 117/2/2 113/2/2 118/2/2
f 119/1/2 120/1/2 123/1/2
f 120/2/2 121/2/2 124/2/2
f 123/1/2 120/1/2 124/1/2
f 121/1/2 122/1/2 125/1/2
f 124/2/2 121/2/2 125/2/2
f 125/1/2 122/1/2 126/1/2
f 127/1/2 128/1/2 129/1/2
f 129/1/2 128/1/2 130/1/2
f 127/1/2 129/1/2 131/1/2
f 129/2/2 130/2/2 132/2/2
f 131/1/2 129/1/2 132/1/2
f 130/1/2 128/1/2 133/1/2
f 132/2/2 130/2/2 133/2/2
f 133/1/2 128/1/2 134/1/2
f 137/1/3 136/1/3 135/1/3
f 138/1/3 136/1/3 137/1/3
f 139/1/3 137/1/3 135/1/3
f 141/1/3 139/1/3 135/1/3
f 141/2/3 140/2/3 139/2/3
f 142/2/3 140/2/3 141/2/3
f 143/1/3 141/1/3 135/1/3
f 143/1/3 142/1/3 141/1/3
f 144/1/3 142/1/3 143/1/3
f 145/1/3 143/1/3 135/1/3
f 147/1/3 145/1/3 135/1/3
f 147/1/3 146/1/3 145/1/3
f 148/1/3 146/1/3 147/1/3
f 149/1/3 147/1/3 135/1/3
f 151/1/3 149/1/3 135/1/3
f 151/1/3 150/1/3 149/1/3
f 152/1/3 150/1/3 151/1/3
f 153/1/3 151/1/3 135/1/3
f 155/1/3 153/1/3 135/1/3
f 155/1/3 154/1/3 153/1/3
f 156/1/3 154/1/3 155/1/3
f 157/1/3 155/1/3 135/1/3
f 159/1/3 157/1/3 135/1/3
f 159/1/3 158/1/3 157/1/3
f 160/1/3 158/1/3 159/1/3
f 161/1/4 162/1/4 163/1/4
f 163/1/4 162/1/4 164/1/4
f 161/1/4 163/1/4 165/1/4
f 161/1/4 165/1/4 167/1/4
f 165/1/4 166/1/4 167/1/4
f 167/1/4 166/1/4 168/1/4
f 161/1/4 167/1/4 169/1/4
f 167/2/4 168/2/4 169/2/4
f 169/2/4 168/2/4 170/2/4
f 161/1/4 169/1/4 171/1/4
f 169/1/4 170/1/4 171/1/4
f 171/1/4 170/1/4 172/1/4
f 161/1/4 171/1/4 173/1/4
f 161/1/4 173/1/4 175/1/4
f 173/1/4 174/1/4 175/1/4
f 175/1/4 174/1/4 176/1/4
f 161/1/4 175/1/4 177/1/4
f 161/1/4 177/1/4 179/1/4
f 177/1/4 178/1/4 179/1/4
f 179/1/4 178/1/4 180/1/4
f 161/1/4 179/1/4 181/1/4
f 179/2/4 180/2/4 181/2/4
f 181/2/4 180/2/4 182/2/4
f 161/1/4 181/1/4 183/1/4
f 161/1/4 183/1/4 185/1/4
f 183/1/4 184/1/4 185/1/4
f 185/1/4 184/1/4 186/1/4
f 161/1/4 185/1/4 187/1/4
f 161/1/4 187/1/4 189/1/4
f 187/1/4 188/1/4 189/1/4
f 189/1/4 188/1/4 190/1/4
f 193/1/5 192/1/5 191/1/5
f 194/1/5 192/1/5 193/1/5
f 195/1/6 196/1/6 205/1/6
f 197/1/6 198/1/6 206/1/6
f 206/1/6 198/1/6 207/1/6
f 199/1/6 200/1/6 208/1/6
f 201/1/6 202/1/6 209/1/6
f 209/1/6 202/1/6 210/1/6
f 195/1/6 205/1/6 211/1/6
f 211/1/6 205/1/6 212/1/6
f 197/1/6 206/1/6 213/1/6
f 206/2/6 207/2/6 213/2/6
f 207/1/6 198/1/6 214/1/6
f 213/2/6 207/2/6 214/2/6
f 208/1/6 200/1/6 215/1/6
f 215/1/6 200/1/6 216/1/6
f 216/1/6 200/1/6 217/1/6
f 201/1/6 209/1/6 218/1/6
f 209/2/6 210/2/6 218/2/6
f 218/2/6 210/2/6 219/2/6
f 203/1/6 204/1/6 220/1/6
f 211/1/6 212/1/6 221/1/6
f 221/1/6 212/1/6 222/1/6
f 216/2/6 217/2/6 223/2/6
f 215/1/6 216/1/6 223/1/6
f 223/2/6 217/2/6 224/2/6
f 203/1/6 220/1/6 225/1/6
f 223/1/6 224/1/6 226/1/6
f 215/1/6 223/1/6 226/1/6
f 226/1/6 224/1/6 227/1/6
f 215/1/6 226/1/6 228/1/6
f 226/2/6 227/2/6 228/2/6
f 227/1/6 224/1/6 229/1/6
f 228/2/6 227/2/6 229/2/6
f 203/1/6 225/1/6 230/1/6
f 230/1/6 225/1/6 231/1/6
f 218/1/6 219/1/6 232/1/6
f 201/1/6 218/1/6 232/1/6
f 232/1/6 219/1/6 233/1/6
f 203/1/6 230/1/6 234/1/6
f 230/2/6 231/2/6 235/2/6
f 234/1/6 230/1/6 235/1/6
f 235/2/6 231/2/6 236/2/6
f 221/1/6 222/1/6 237/1/6
f 237/1/6 222/1/6 238/1/6
f 232/2/6 233/2/6 239/2/6
f 201/1/6 232/1/6 239/1/6
f 239/2/6 233/2/6 240/2/6
f 234/1/6 235/1/6 241/1/6
f 235/1/6 236/1/6 241/1/6
f 237/2/6 238/2/6 242/2/6
f 221/1/6 237/1/6 242/1/6
f 242/2/6 238/2/6 243/2/6
f 197/1/6 213/1/6 244/1/6
f 213/1/6 214/1/6 244/1/6
f 244/1/6 214/1/6 245/1/6
f 197/1/6 244/1/6 246/1/6
f 244/2/6 245/2/6 246/2/6
f 245/1/6 214/1/6 247/1/6
f 246/2/6 245/2/6 247/2/6
f 241/1/6 236/1/6 248/1/6
f 248/1/6 236/1/6 249/1/6
f 241/1/6 248/1/6 250/1/6
f 248/2/6 249/2/6 250/2/6
f 249/1/6 236/1/6 251/1/6
f 250/2/6 249/2/6 251/2/6
f 229/1/6 224/1/6 252/1/6
f 228/1/6 229/1/6 252/1/6
f 214/1/6 198/1/6 253/1/6
f 247/1/6 214/1/6 253/1/6
f 246/1/6 247/1/6 253/1/6
f 253/1/6 198/1/6 254/1/6
f 228/1/6 252/1/6 255/1/6
f 242/1/6 243/1/6 256/1/6
f 221/1/6 242/1/6 256/1/6
f 256/1/6 243/1/6 257/1/6
f 253/2/6 254/2/6 258/2/6
f 246/1/6 253/1/6 258/1/6
f 258/2/6 254/2/6 259/2/6
f 256/2/6 257/2/6 260/2/6
f 221/1/6 256/1/6 260/1/6
f 257/1/6 243/1/6 261/1/6
f 260/2/6 257/2/6 261/2/6
f 260/1/6 261/1/6 262/1/6
f 261/1/6 243/1/6 262/1/6
f 260/1/6 262/1/6 263/1/6
f 228/1/6 255/1/6 264/1/6
f 215/1/6 228/1/6 264/1/6
f 264/1/6 255/1/6 265/1/6
f 239/1/6 240/1/6 266/1/6
f 201/1/6 239/1/6 266/1/6
f 266/1/6 240/1/6 267/1/6
f 246/1/6 258/1/6 268/1/6
f 258/1/6 259/1/6 268/1/6
f 197/1/6 246/1/6 268/1/6
f 268/1/6 259/1/6 269/1/6
f 264/2/6 265/2/6 270/2/6
f 215/1/6 264/1/6 270/1/6
f 265/1/6 255/1/6 271/1/6
f 270/2/6 265/2/6 271/2/6
f 266/2/6 267/2/6 272/2/6
f 201/1/6 266/1/6 272/1/6
f 267/1/6 240/1/6 273/1/6
f 272/2/6 267/2/6 273/2/6
f 268/2/6 269/2/6 274/2/6
f 269/1/6 259/1/6 275/1/6
f 274/2/6 269/2/6 275/2/6
f 251/1/6 236/1/6 276/1/6
f 250/1/6 251/1/6 276/1/6
f 260/1/6 263/1/6 277/1/6
f 221/1/6 260/1/6 277/1/6
f 250/1/6 276/1/6 278/1/6
f 277/1/6 263/1/6 279/1/6
f 241/1/6 250/1/6 280/1/6
f 250/1/6 278/1/6 280/1/6
f 280/1/6 278/1/6 281/1/6
f 241/1/6 280/1/6 282/1/6
f 280/2/6 281/2/6 282/2/6
f 281/1/6 278/1/6 283/1/6
f 282/2/6 281/2/6 283/2/6
f 279/1/6 263/1/6 284/1/6
f 275/1/6 259/1/6 285/1/6
f 274/1/6 275/1/6 285/1/6
f 279/1/6 284/1/6 286/1/6
f 274/1/6 285/1/6 287/1/6
f 201/1/6 272/1/6 288/1/6
f 272/1/6 273/1/6 288/1/6
f 288/1/6 273/1/6 289/1/6
f 279/1/6 286/1/6 290/1/6
f 290/1/6 286/1/6 291/1/6
f 291/1/6 286/1/6 292/1/6
f 282/1/6 283/1/6 293/1/6
f 283/1/6 278/1/6 293/1/6
f 290/1/6 291/1/6 294/1/6
f 291/2/6 292/2/6 295/2/6
f 294/1/6 291/1/6 295/1/6
f 292/1/6 286/1/6 296/1/6
f 295/2/6 292/2/6 296/2/6
f 289/1/6 273/1/6 297/1/6
f 273/1/6 240/1/6 297/1/6
f 282/1/6 293/1/6 298/1/6
f 289/1/6 297/1/6 299/1/6
f 274/1/6 287/1/6 300/1/6
f 300/1/6 287/1/6 301/1/6
f 274/1/6 300/1/6 302/1/6
f 300/2/6 301/2/6 302/2/6
f 301/1/6 287/1/6 303/1/6
f 302/2/6 301/2/6 303/2/6
f 289/1/6 299/1/6 304/1/6
f 294/1/6 295/1/6 305/1/6
f 295/1/6 296/1/6 305/1/6
f 296/1/6 286/1/6 306/1/6
f 305/1/6 296/1/6 306/1/6
f 274/1/6 302/1/6 307/1/6
f 302/1/6 303/1/6 307/1/6
f 303/1/6 287/1/6 308/1/6
f 307/1/6 303/1/6 308/1/6
f 215/1/6 270/1/6 309/1/6
f 270/1/6 271/1/6 309/1/6
f 271/1/6 255/1/6 310/1/6
f 309/1/6 271/1/6 310/1/6
f 304/1/6 299/1/6 311/1/6
f 311/1/6 299/1/6 312/1/6
f 241/1/6 282/1/6 313/1/6
f 282/1/6 298/1/6 313/1/6
f 313/1/6 298/1/6 314/1/6
f 317/2/6 318/2/6 328/2/6
f 318/1/6 319/1/6 329/1/6
f 328/2/6 318/2/6 329/2/6
f 320/1/6 321/1/6 330/1/6
f 330/1/6 321/1/6 331/1/6
f 322/1/6 323/1/6 332/1/6
f 332/1/6 323/1/6 333/1/6
f 315/1/6 316/1/6 334/1/6
f 334/1/6 316/1/6 335/1/6
f 328/1/6 329/1/6 336/1/6
f 329/1/6 319/1/6 337/1/6
f 336/1/6 329/1/6 337/1/6
f 330/2/6 331/2/6 338/2/6
f 320/1/6 330/1/6 338/1/6
f 338/2/6 331/2/6 339/2/6
f 322/1/6 332/1/6 340/1/6
f 332/2/6 333/2/6 340/2/6
f 333/1/6 323/1/6 341/1/6
f 340/2/6 333/2/6 341/2/6
f 326/1/6 327/1/6 342/1/6
f 342/1/6 327/1/6 343/1/6
f 334/2/6 335/2/6 344/2/6
f 315/1/6 334/1/6 344/1/6
f 344/2/6 335/2/6 345/2/6
f 336/2/6 337/2/6 346/2/6
f 337/1/6 319/1/6 347/1/6
f 346/2/6 337/2/6 347/2/6
f 342/2/6 343/2/6 348/2/6
f 343/1/6 327/1/6 349/1/6
f 348/2/6 343/2/6 349/2/6
f 324/1/6 325/1/6 350/1/6
f 350/1/6 325/1/6 351/1/6
f 324/1/6 350/1/6 352/1/6
f 350/2/6 351/2/6 352/2/6
f 351/1/6 325/1/6 353/1/6
f 352/2/6 351/2/6 353/2/6
f 347/1/6 319/1/6 354/1/6
f 346/1/6 347/1/6 354/1/6
f 354/1/6 319/1/6 355/1/6
f 338/1/6 339/1/6 356/1/6
f 320/1/6 338/1/6 356/1/6
f 356/1/6 339/1/6 357/1/6
f 353/1/6 325/1/6 358/1/6
f 352/1/6 353/1/6 358/1/6
f 358/1/6 325/1/6 359/1/6
f 354/2/6 355/2/6 360/2/6
f 346/1/6 354/1/6 360/1/6
f 355/1/6 319/1/6 361/1/6
f 360/2/6 355/2/6 361/2/6
f 356/2/6 357/2/6 362/2/6
f 320/1/6 356/1/6 362/1/6
f 357/1/6 339/1/6 363/1/6
f 362/2/6 357/2/6 363/2/6
f 358/2/6 359/2/6 364/2/6
f 352/1/6 358/1/6 364/1/6
f 364/2/6 359/2/6 365/2/6
f 322/1/6 340/1/6 366/1/6
f 340/1/6 341/1/6 366/1/6
f 366/1/6 341/1/6 367/1/6
f 322/1/6 366/1/6 368/1/6
f 366/2/6 367/2/6 368/2/6
f 367/1/6 341/1/6 369/1/6
f 368/2/6 367/2/6 369/2/6
f 344/1/6 345/1/6 370/1/6
f 315/1/6 344/1/6 370/1/6
f 370/1/6 345/1/6 371/1/6
f 320/1/6 362/1/6 372/1/6
f 362/1/6 363/1/6 372/1/6
f 363/1/6 339/1/6 373/1/6
f 372/1/6 363/1/6 373/1/6
f 370/2/6 371/2/6 374/2/6
f 371/1/6 345/1/6 375/1/6
f 374/2/6 371/2/6 375/2/6
f 320/1/6 372/1/6 376/1/6
f 372/2/6 373/2/6 376/2/6
f 373/1/6 339/1/6 377/1/6
f 376/2/6 373/2/6 377/2/6
f 368/1/6 369/1/6 378/1/6
f 322/1/6 368/1/6 378/1/6
f 378/1/6 369/1/6 379/1/6
f 364/1/6 365/1/6 380/1/6
f 324/1/6 352/1/6 380/1/6
f 352/1/6 364/1/6 380/1/6
f 380/1/6 365/1/6 381/1/6
f 349/1/6 327/1/6 382/1/6
f 348/1/6 349/1/6 382/1/6
f 382/1/6 327/1/6 383/1/6
f 378/2/6 379/2/6 384/2/6
f 379/1/6 369/1/6 385/1/6
f 384/2/6 379/2/6 385/2/6
f 380/2/6 381/2/6 386/2/6
f 324/1/6 380/1/6 386/1/6
f 381/1/6 365/1/6 387/1/6
f 386/2/6 381/2/6 387/2/6
f 348/1/6 382/1/6 388/1/6
f 382/2/6 383/2/6 388/2/6
f 388/2/6 383/2/6 389/2/6
f 346/1/6 360/1/6 390/1/6
f 360/1/6 361/1/6 390/1/6
f 390/1/6 361/1/6 391/1/6
f 390/2/6 391/2/6 392/2/6
f 391/1/6 361/1/6 393/1/6
f 392/2/6 391/2/6 393/2/6
f 388/1/6 389/1/6 394/1/6
f 348/1/6 388/1/6 394/1/6
f 394/1/6 389/1/6 395/1/6
f 374/1/6 375/1/6 396/1/6
f 375/1/6 345/1/6 396/1/6
f 396/1/6 345/1/6 397/1/6
f 324/1/6 386/1/6 398/1/6
f 386/1/6 387/1/6 398/1/6
f 387/1/6 365/1/6 399/1/6
f 398/1/6 387/1/6 399/1/6
f 394/2/6 395/2/6 400/2/6
f 395/1/6 389/1/6 401/1/6
f 400/2/6 395/2/6 401/2/6
f 396/2/6 397/2/6 402/2/6
f 374/1/6 396/1/6 402/1/6
f 402/2/6 397/2/6 403/2/6
f 324/1/6 398/1/6 404/1/6
f 398/2/6 399/2/6 404/2/6
f 399/1/6 365/1/6 405/1/6
f 404/2/6 399/2/6 405/2/6
f 392/1/6 393/1/6 406/1/6
f 393/1/6 361/1/6 407/1/6
f 406/1/6 393/1/6 407/1/6
f 320/1/6 376/1/6 408/1/6
f 376/1/6 377/1/6 408/1/6
f 408/1/6 377/1/6 409/1/6
f 406/2/6 407/2/6 410/2/6
f 407/1/6 361/1/6 411/1/6
f 410/2/6 407/2/6 411/2/6
f 408/2/6 409/2/6 412/2/6
f 409/1/6 377/1/6 413/1/6
f 412/2/6 409/2/6 413/2/6
f 341/1/6 323/1/6 414/1/6
f 385/1/6 369/1/6 414/1/6
f 369/1/6 341/1/6 414/1/6
f 384/1/6 385/1/6 414/1/6
f 414/1/6 323/1/6 415/1/6
f 384/1/6 414/1/6 416/1/6
f 414/2/6 415/2/6 416/2/6
f 416/2/6 415/2/6 417/2/6
f 413/1/6 377/1/6 418/1/6
f 412/1/6 413/1/6 418/1/6
f 377/1/6 339/1/6 418/1/6
f 418/1/6 339/1/6 419/1/6
f 405/1/6 365/1/6 420/1/6
f 404/1/6 405/1/6 420/1/6
f 420/1/6 365/1/6 421/1/6
f 402/1/6 403/1/6 422/1/6
f 374/1/6 402/1/6 422/1/6
f 422/1/6 403/1/6 423/1/6
f 418/2/6 419/2/6 424/2/6
f 412/1/6 418/1/6 424/1/6
f 419/1/6 339/1/6 425/1/6
f 424/2/6 419/2/6 425/2/6
f 420/2/6 421/2/6 426/2/6
f 404/1/6 420/1/6 426/1/6
f 421/1/6 365/1/6 427/1/6
f 426/2/6 421/2/6 427/2/6
f 400/1/6 401/1/6 428/1/6
f 401/1/6 389/1/6 429/1/6
f 428/1/6 401/1/6 429/1/6
f 422/2/6 423/2/6 430/2/6
f 374/1/6 422/1/6 430/1/6
f 430/2/6 423/2/6 431/2/6
f 416/1/6 417/1/6 432/1/6
f 384/1/6 416/1/6 432/1/6
f 432/1/6 417/1/6 433/1/6
f 324/1/6 404/1/6 434/1/6
f 404/1/6 426/1/6 434/1/6
f 426/1/6 427/1/6 434/1/6
f 434/1/6 427/1/6 435/1/6
f 428/2/6 429/2/6 436/2/6
f 429/1/6 389/1/6 437/1/6
f 436/2/6 429/2/6 437/2/6
f 432/2/6 433/2/6 438/2/6
f 384/1/6 432/1/6 438/1/6
f 433/1/6 417/1/6 439/1/6
f 438/2/6 433/2/6 439/2/6
f 434/2/6 435/2/6 440/2/6
f 435/1/6 427/1/6 441/1/6
f 440/2/6 435/2/6 441/2/6
f 410/1/6 411/1/6 442/1/6
f 411/1/6 361/1/6 442/1/6
f 361/1/6 319/1/6 443/1/6
f 442/1/6 361/1/6 443/1/6
f 439/1/6 417/1/6 444/1/6
f 438/1/6 439/1/6 444/1/6
f 444/1/6 417/1/6 445/1/6
f 430/1/6 431/1/6 446/1/6
f 374/1/6 430/1/6 446/1/6
f 446/1/6 431/1/6 447/1/6
f 410/1/6 442/1/6 448/1/6
f 442/2/6 443/2/6 449/2/6
f 448/1/6 442/1/6 449/1/6
f 443/1/6 319/1/6 450/1/6
f 449/2/6 443/2/6 450/2/6
f 450/1/6 319/1/6 451/1/6
f 412/1/6 424/1/6 452/1/6
f 424/1/6 425/1/6 452/1/6
f 425/1/6 339/1/6 453/1/6
f 452/1/6 425/1/6 453/1/6
f 384/1/6 438/1/6 454/1/6
f 438/1/6 444/1/6 454/1/6
f 444/2/6 445/2/6 455/2/6
f 454/1/6 444/1/6 455/1/6
f 455/2/6 445/2/6 456/2/6
f 440/1/6 441/1/6 457/1/6
f 441/1/6 427/1/6 458/1/6
f 457/1/6 441/1/6 458/1/6
f 427/1/6 365/1/6 458/1/6
f 436/1/6 437/1/6 459/1/6
f 437/1/6 389/1/6 460/1/6
f 459/1/6 437/1/6 460/1/6
